<svg width="32" height="32" viewBox="0 0 32 32" fill="none" xmlns="http://www.w3.org/2000/svg">
<path d="M4.00684 26H28.0068V30H4.00684V26Z" fill="white"/>
<path d="M26.007 14.54C26.0141 14.2866 25.9247 14.04 25.757 13.85L17.177 4.33C17.1247 4.2812 17.0677 4.23765 17.007 4.2V2H15.007V5L4.32695 14.74C4.13251 14.9193 4.01703 15.1684 4.00579 15.4326C3.99454 15.6969 4.08845 15.9548 4.26695 16.15L12.837 25.67C13.0141 25.8671 13.2623 25.9858 13.527 26H13.577C13.8282 26.0019 14.071 25.909 14.257 25.74L24.007 16.8V21C24.007 21.2652 24.1123 21.5196 24.2998 21.7071C24.4874 21.8946 24.7417 22 25.007 22C25.2722 22 25.5265 21.8946 25.7141 21.7071C25.9016 21.5196 26.007 21.2652 26.007 21V14.57V14.54ZM13.657 23.54L6.42695 15.54L15.007 7.67V12H17.007V7.13L23.597 14.46L13.657 23.54Z" fill="white"/>
</svg>
