<svg width="31" height="31" viewBox="0 0 31 31" fill="none" xmlns="http://www.w3.org/2000/svg">
<path d="M9.02501 0.0830078H21.975C26.9083 0.0830078 30.9167 4.09134 30.9167 9.02468V21.9747C30.9167 24.3462 29.9746 26.6205 28.2977 28.2974C26.6208 29.9743 24.3465 30.9163 21.975 30.9163H9.02501C4.09168 30.9163 0.0833435 26.908 0.0833435 21.9747V9.02468C0.0833435 6.6532 1.02541 4.37885 2.7023 2.70196C4.37919 1.02507 6.65353 0.0830078 9.02501 0.0830078ZM8.71668 3.16634C7.24473 3.16634 5.83306 3.75107 4.79223 4.7919C3.75141 5.83273 3.16668 7.24439 3.16668 8.71634V22.283C3.16668 25.3509 5.64876 27.833 8.71668 27.833H22.2833C23.7553 27.833 25.167 27.2483 26.2078 26.2075C27.2486 25.1666 27.8333 23.755 27.8333 22.283V8.71634C27.8333 5.64842 25.3513 3.16634 22.2833 3.16634H8.71668ZM23.5938 5.47884C24.1049 5.47884 24.595 5.68187 24.9564 6.04327C25.3178 6.40467 25.5208 6.89483 25.5208 7.40592C25.5208 7.91702 25.3178 8.40718 24.9564 8.76858C24.595 9.12998 24.1049 9.33301 23.5938 9.33301C23.0827 9.33301 22.5925 9.12998 22.2311 8.76858C21.8697 8.40718 21.6667 7.91702 21.6667 7.40592C21.6667 6.89483 21.8697 6.40467 22.2311 6.04327C22.5925 5.68187 23.0827 5.47884 23.5938 5.47884ZM15.5 7.79134C17.5444 7.79134 19.505 8.60347 20.9506 10.0491C22.3962 11.4947 23.2083 13.4553 23.2083 15.4997C23.2083 17.5441 22.3962 19.5047 20.9506 20.9503C19.505 22.3959 17.5444 23.208 15.5 23.208C13.4556 23.208 11.495 22.3959 10.0494 20.9503C8.6038 19.5047 7.79168 17.5441 7.79168 15.4997C7.79168 13.4553 8.6038 11.4947 10.0494 10.0491C11.495 8.60347 13.4556 7.79134 15.5 7.79134ZM15.5 10.8747C14.2734 10.8747 13.097 11.3619 12.2296 12.2293C11.3623 13.0967 10.875 14.273 10.875 15.4997C10.875 16.7263 11.3623 17.9027 12.2296 18.77C13.097 19.6374 14.2734 20.1247 15.5 20.1247C16.7266 20.1247 17.903 19.6374 18.7704 18.77C19.6377 17.9027 20.125 16.7263 20.125 15.4997C20.125 14.273 19.6377 13.0967 18.7704 12.2293C17.903 11.3619 16.7266 10.8747 15.5 10.8747Z" fill="#FEF5F9"/>
</svg>
