<svg width="24" height="24" viewBox="0 0 24 24" fill="none" xmlns="http://www.w3.org/2000/svg">
<path d="M9.99316 20C9.44316 20 8.9725 19.8043 8.58116 19.413C8.18983 19.0217 7.99383 18.5507 7.99316 18C7.99316 17.45 8.18916 16.9793 8.58116 16.588C8.97316 16.1967 9.44383 16.0007 9.99316 16H19.9932C20.5432 16 21.0142 16.196 21.4062 16.588C21.7982 16.98 21.9938 17.4507 21.9932 18C21.9932 18.55 21.7975 19.021 21.4062 19.413C21.0148 19.805 20.5438 20.0007 19.9932 20H9.99316ZM9.99316 14C9.44316 14 8.9725 13.8043 8.58116 13.413C8.18983 13.0217 7.99383 12.5507 7.99316 12C7.99316 11.45 8.18916 10.9793 8.58116 10.588C8.97316 10.1967 9.44383 10.0007 9.99316 10H19.9932C20.5432 10 21.0142 10.196 21.4062 10.588C21.7982 10.98 21.9938 11.4507 21.9932 12C21.9932 12.55 21.7975 13.021 21.4062 13.413C21.0148 13.805 20.5438 14.0007 19.9932 14H9.99316ZM9.99316 8C9.44316 8 8.9725 7.80433 8.58116 7.413C8.18983 7.02167 7.99383 6.55067 7.99316 6C7.99316 5.45 8.18916 4.97933 8.58116 4.588C8.97316 4.19667 9.44383 4.00067 9.99316 4H19.9932C20.5432 4 21.0142 4.196 21.4062 4.588C21.7982 4.98 21.9938 5.45067 21.9932 6C21.9932 6.55 21.7975 7.021 21.4062 7.413C21.0148 7.805 20.5438 8.00067 19.9932 8H9.99316ZM3.99316 8C3.44316 8 2.9725 7.80433 2.58116 7.413C2.18983 7.02167 1.99383 6.55067 1.99316 6C1.99316 5.45 2.18916 4.97933 2.58116 4.588C2.97316 4.19667 3.44383 4.00067 3.99316 4C4.54316 4 5.01416 4.196 5.40616 4.588C5.79816 4.98 5.99383 5.45067 5.99316 6C5.99316 6.55 5.7975 7.021 5.40616 7.413C5.01483 7.805 4.54383 8.00067 3.99316 8ZM3.99316 14C3.44316 14 2.9725 13.8043 2.58116 13.413C2.18983 13.0217 1.99383 12.5507 1.99316 12C1.99316 11.45 2.18916 10.9793 2.58116 10.588C2.97316 10.1967 3.44383 10.0007 3.99316 10C4.54316 10 5.01416 10.196 5.40616 10.588C5.79816 10.98 5.99383 11.4507 5.99316 12C5.99316 12.55 5.7975 13.021 5.40616 13.413C5.01483 13.805 4.54383 14.0007 3.99316 14ZM3.99316 20C3.44316 20 2.9725 19.8043 2.58116 19.413C2.18983 19.0217 1.99383 18.5507 1.99316 18C1.99316 17.45 2.18916 16.9793 2.58116 16.588C2.97316 16.1967 3.44383 16.0007 3.99316 16C4.54316 16 5.01416 16.196 5.40616 16.588C5.79816 16.98 5.99383 17.4507 5.99316 18C5.99316 18.55 5.7975 19.021 5.40616 19.413C5.01483 19.805 4.54383 20.0007 3.99316 20Z" fill="white"/>
</svg>
