<svg width="24" height="24" viewBox="0 0 24 24" fill="none" xmlns="http://www.w3.org/2000/svg">
<g clip-path="url(#clip0_385_127)">
<path d="M18.4931 1.1499C17.9631 1.1499 17.4531 1.3399 17.0631 1.7299L11.2531 7.5499L16.9031 13.1999L22.7231 7.3899C23.4931 6.6099 23.4931 5.3499 22.7231 4.5599L19.8831 1.7299C19.4931 1.3399 18.9931 1.1499 18.4931 1.1499ZM10.2931 8.4999L4.33309 14.4599C3.55309 15.2399 3.55309 16.4999 4.35309 17.3099C3.13309 18.5399 1.89309 19.7699 0.663086 20.9999H6.32309L7.18309 20.1399C7.96309 20.8999 9.21309 20.8899 9.99309 20.1199L15.9431 14.1599" fill="white"/>
</g>
<defs>
<clipPath id="clip0_385_127">
<rect width="24" height="24" fill="white" transform="translate(-0.00683594)"/>
</clipPath>
</defs>
</svg>
