<svg width="20" height="20" viewBox="0 0 20 20" fill="none" xmlns="http://www.w3.org/2000/svg">
<path d="M13.0918 10.5917C13.1676 10.5124 13.2271 10.419 13.2668 10.3167C13.3501 10.1138 13.3501 9.88621 13.2668 9.68333C13.2271 9.58103 13.1676 9.48758 13.0918 9.40833L10.5918 6.90833C10.4348 6.75141 10.222 6.66325 10.0001 6.66325C9.77817 6.66325 9.56534 6.75141 9.40842 6.90833C9.2515 7.06525 9.16334 7.27808 9.16334 7.49999C9.16334 7.72191 9.2515 7.93474 9.40842 8.09166L10.4918 9.16666H7.50008C7.27907 9.16666 7.06711 9.25446 6.91083 9.41074C6.75455 9.56702 6.66675 9.77898 6.66675 9.99999C6.66675 10.221 6.75455 10.433 6.91083 10.5892C7.06711 10.7455 7.27907 10.8333 7.50008 10.8333H10.4918L9.40842 11.9083C9.33031 11.9858 9.26832 12.078 9.22601 12.1795C9.1837 12.2811 9.16192 12.39 9.16192 12.5C9.16192 12.61 9.1837 12.7189 9.22601 12.8205C9.26832 12.922 9.33031 13.0142 9.40842 13.0917C9.48589 13.1698 9.57805 13.2318 9.6796 13.2741C9.78115 13.3164 9.89008 13.3382 10.0001 13.3382C10.1101 13.3382 10.219 13.3164 10.3206 13.2741C10.4221 13.2318 10.5143 13.1698 10.5918 13.0917L13.0918 10.5917ZM18.3334 9.99999C18.3334 8.35182 17.8447 6.74065 16.929 5.37024C16.0133 3.99983 14.7118 2.93173 13.1891 2.301C11.6664 1.67027 9.99084 1.50524 8.37433 1.82678C6.75782 2.14833 5.27297 2.942 4.10753 4.10744C2.94209 5.27287 2.14842 6.75773 1.82687 8.37424C1.50533 9.99075 1.67036 11.6663 2.30109 13.189C2.93182 14.7117 3.99992 16.0132 5.37033 16.9289C6.74074 17.8446 8.35191 18.3333 10.0001 18.3333C12.2102 18.3333 14.3298 17.4554 15.8926 15.8925C17.4554 14.3297 18.3334 12.2101 18.3334 9.99999ZM3.33342 9.99999C3.33342 8.68145 3.72441 7.39252 4.45695 6.29619C5.1895 5.19986 6.23069 4.34538 7.44886 3.8408C8.66704 3.33621 10.0075 3.20419 11.3007 3.46143C12.5939 3.71866 13.7818 4.3536 14.7141 5.28595C15.6465 6.2183 16.2814 7.40619 16.5387 8.69939C16.7959 9.9926 16.6639 11.333 16.1593 12.5512C15.6547 13.7694 14.8002 14.8106 13.7039 15.5431C12.6076 16.2757 11.3186 16.6667 10.0001 16.6667C8.23198 16.6667 6.53628 15.9643 5.28604 14.714C4.0358 13.4638 3.33342 11.7681 3.33342 9.99999Z" fill="black"/>
</svg>
