<svg width="20" height="20" viewBox="0 0 20 20" fill="none" xmlns="http://www.w3.org/2000/svg">
<path d="M4.44353 11.9445L12.8699 11.9445L9.20627 15.597C8.99721 15.8061 8.87977 16.0896 8.87977 16.3853C8.87977 16.6809 8.99721 16.9644 9.20627 17.1735C9.41532 17.3826 9.69886 17.5 9.99451 17.5C10.2902 17.5 10.5737 17.3826 10.7827 17.1735L16.3337 11.6225C16.4348 11.5169 16.514 11.3924 16.5669 11.2562C16.6779 10.9859 16.6779 10.6827 16.5669 10.4124C16.514 10.2761 16.4348 10.1516 16.3337 10.046L10.7827 4.49506C10.6795 4.391 10.5568 4.30841 10.4215 4.25205C10.2862 4.19568 10.1411 4.16667 9.99451 4.16667C9.84795 4.16667 9.70284 4.19568 9.56755 4.25205C9.43226 4.30841 9.30947 4.391 9.20627 4.49506C9.10221 4.59827 9.01962 4.72106 8.96326 4.85634C8.90689 4.99163 8.87787 5.13674 8.87787 5.2833C8.87787 5.42986 8.90689 5.57497 8.96326 5.71026C9.01962 5.84554 9.10221 5.96833 9.20627 6.07154L12.8699 9.72408L4.44353 9.72408C4.14908 9.72408 3.8667 9.84105 3.6585 10.0493C3.4503 10.2575 3.33333 10.5398 3.33333 10.8343C3.33333 11.1287 3.4503 11.4111 3.6585 11.6193C3.8667 11.8275 4.14908 11.9445 4.44353 11.9445Z" fill="black"/>
</svg>
