<svg width="20" height="20" viewBox="0 0 20 20" fill="none" xmlns="http://www.w3.org/2000/svg">
<path d="M11.0904 10.0294L6.38647 14.7333C6.13898 14.9823 6.00006 15.3191 6.00006 15.6701C6.00006 16.0212 6.13898 16.358 6.38647 16.6069C6.51 16.7315 6.65696 16.8303 6.81889 16.8978C6.98082 16.9653 7.1545 17 7.32992 17C7.50533 17 7.67902 16.9653 7.84094 16.8978C8.00287 16.8303 8.14984 16.7315 8.27337 16.6069L13.9075 10.9728C14.032 10.8493 14.1309 10.7023 14.1983 10.5404C14.2658 10.3785 14.3005 10.2048 14.3005 10.0294C14.3005 9.85396 14.2658 9.68028 14.1983 9.51835C14.1309 9.35643 14.032 9.20946 13.9075 9.08593L8.27337 3.38538C8.1492 3.26222 8.00195 3.16479 7.84005 3.09866C7.67816 3.03253 7.5048 2.99901 7.32992 3.00002C7.15504 2.99901 6.98168 3.03253 6.81978 3.09866C6.65789 3.16479 6.51063 3.26222 6.38647 3.38538C6.13898 3.63434 6.00006 3.97113 6.00006 4.32218C6.00006 4.67323 6.13898 5.01002 6.38647 5.25898L11.0904 10.0294Z" fill="black"/>
</svg>
