<svg width="20" height="20" viewBox="0 0 20 20" fill="none" xmlns="http://www.w3.org/2000/svg">
<path d="M14.9999 10.9833V8.33333C14.9987 7.1526 14.5797 6.01039 13.8171 5.10898C13.0545 4.20756 11.9975 3.60512 10.8333 3.40833V2.5C10.8333 2.27898 10.7455 2.06702 10.5892 1.91074C10.4329 1.75446 10.2209 1.66666 9.99992 1.66666C9.7789 1.66666 9.56694 1.75446 9.41066 1.91074C9.25438 2.06702 9.16658 2.27898 9.16658 2.5V3.40833C8.00237 3.60512 6.94536 4.20756 6.18274 5.10898C5.42012 6.01039 5.00112 7.1526 4.99992 8.33333V10.9833C4.51363 11.1553 4.09242 11.4734 3.79403 11.8941C3.49565 12.3148 3.3347 12.8175 3.33325 13.3333V15C3.33325 15.221 3.42105 15.433 3.57733 15.5893C3.73361 15.7455 3.94557 15.8333 4.16659 15.8333H6.78325C6.97515 16.5395 7.39409 17.1628 7.97542 17.6073C8.55675 18.0517 9.26817 18.2925 9.99992 18.2925C10.7317 18.2925 11.4431 18.0517 12.0244 17.6073C12.6058 17.1628 13.0247 16.5395 13.2166 15.8333H15.8333C16.0543 15.8333 16.2662 15.7455 16.4225 15.5893C16.5788 15.433 16.6666 15.221 16.6666 15V13.3333C16.6651 12.8175 16.5042 12.3148 16.2058 11.8941C15.9074 11.4734 15.4862 11.1553 14.9999 10.9833ZM6.66659 8.33333C6.66659 7.44928 7.01777 6.60143 7.6429 5.97631C8.26802 5.35119 9.11586 5 9.99992 5C10.884 5 11.7318 5.35119 12.3569 5.97631C12.9821 6.60143 13.3333 7.44928 13.3333 8.33333V10.8333H6.66659V8.33333ZM9.99992 16.6667C9.70906 16.6649 9.42373 16.5871 9.17228 16.4409C8.92083 16.2947 8.71201 16.0852 8.56659 15.8333H11.4333C11.2878 16.0852 11.079 16.2947 10.8276 16.4409C10.5761 16.5871 10.2908 16.6649 9.99992 16.6667ZM14.9999 14.1667H4.99992V13.3333C4.99992 13.1123 5.08772 12.9004 5.244 12.7441C5.40028 12.5878 5.61224 12.5 5.83325 12.5H14.1666C14.3876 12.5 14.5996 12.5878 14.7558 12.7441C14.9121 12.9004 14.9999 13.1123 14.9999 13.3333V14.1667Z" fill="black"/>
</svg>
