<svg width="20" height="20" viewBox="0 0 20 20" fill="none" xmlns="http://www.w3.org/2000/svg">
<path d="M9.99996 1.66666C8.35179 1.66666 6.74062 2.15541 5.37021 3.07108C3.9998 3.98676 2.9317 5.28825 2.30097 6.81097C1.67024 8.33369 1.50521 10.0092 1.82675 11.6258C2.1483 13.2423 2.94197 14.7271 4.10741 15.8926C5.27284 17.058 6.7577 17.8517 8.37421 18.1732C9.99072 18.4948 11.6663 18.3297 13.189 17.699C14.7117 17.0683 16.0132 16.0002 16.9289 14.6298C17.8446 13.2593 18.3333 11.6482 18.3333 10C18.3333 8.90565 18.1177 7.82202 17.699 6.81097C17.2802 5.79992 16.6663 4.88126 15.8925 4.10744C15.1187 3.33362 14.2 2.71979 13.189 2.301C12.1779 1.88221 11.0943 1.66666 9.99996 1.66666ZM9.99996 16.6667C8.68142 16.6667 7.39249 16.2757 6.29616 15.5431C5.19983 14.8106 4.34535 13.7694 3.84077 12.5512C3.33618 11.333 3.20416 9.9926 3.46139 8.6994C3.71863 7.40619 4.35357 6.2183 5.28592 5.28595C6.21827 4.3536 7.40615 3.71866 8.69936 3.46143C9.99257 3.20419 11.333 3.33622 12.5512 3.8408C13.7694 4.34539 14.8105 5.19987 15.5431 6.2962C16.2756 7.39252 16.6666 8.68146 16.6666 10C16.6666 11.7681 15.9643 13.4638 14.714 14.714C13.4638 15.9643 11.7681 16.6667 9.99996 16.6667ZM9.99996 5C9.77895 5 9.56699 5.0878 9.41071 5.24408C9.25443 5.40036 9.16663 5.61232 9.16663 5.83333V9.51666L7.41663 10.525C7.25609 10.616 7.13029 10.7576 7.05895 10.9278C6.9876 11.098 6.97475 11.287 7.02242 11.4653C7.07008 11.6435 7.17556 11.8009 7.32231 11.9128C7.46906 12.0246 7.64878 12.0846 7.8333 12.0833C7.97928 12.0843 8.12296 12.047 8.24996 11.975L10.4166 10.725L10.4916 10.65L10.625 10.5417C10.6575 10.5004 10.6855 10.4557 10.7083 10.4083C10.7355 10.3636 10.7578 10.3161 10.775 10.2667C10.7976 10.2137 10.8117 10.1574 10.8166 10.1L10.8333 10V5.83333C10.8333 5.61232 10.7455 5.40036 10.5892 5.24408C10.4329 5.0878 10.221 5 9.99996 5Z" fill="black"/>
</svg>
