<svg width="20" height="20" viewBox="0 0 20 20" fill="none" xmlns="http://www.w3.org/2000/svg">
<path d="M16.6667 6.81666V2.5C16.6667 2.27898 16.5789 2.06702 16.4226 1.91074C16.2663 1.75446 16.0544 1.66666 15.8333 1.66666C15.6123 1.66666 15.4004 1.75446 15.2441 1.91074C15.0878 2.06702 15 2.27898 15 2.5V6.81666C14.5174 6.99183 14.1004 7.31135 13.8057 7.7318C13.511 8.15225 13.3529 8.65323 13.3529 9.16666C13.3529 9.6801 13.511 10.1811 13.8057 10.6015C14.1004 11.022 14.5174 11.3415 15 11.5167V17.5C15 17.721 15.0878 17.933 15.2441 18.0893C15.4004 18.2455 15.6123 18.3333 15.8333 18.3333C16.0544 18.3333 16.2663 18.2455 16.4226 18.0893C16.5789 17.933 16.6667 17.721 16.6667 17.5V11.5167C17.1493 11.3415 17.5663 11.022 17.861 10.6015C18.1557 10.1811 18.3137 9.6801 18.3137 9.16666C18.3137 8.65323 18.1557 8.15225 17.861 7.7318C17.5663 7.31135 17.1493 6.99183 16.6667 6.81666ZM15.8333 10C15.6685 10 15.5074 9.95112 15.3704 9.85956C15.2333 9.76799 15.1265 9.63784 15.0634 9.48557C15.0004 9.3333 14.9839 9.16574 15.016 9.00409C15.0482 8.84244 15.1275 8.69395 15.2441 8.57741C15.3606 8.46086 15.5091 8.3815 15.6708 8.34934C15.8324 8.31719 16 8.33369 16.1522 8.39676C16.3045 8.45984 16.4347 8.56665 16.5262 8.70369C16.6178 8.84073 16.6667 9.00185 16.6667 9.16666C16.6667 9.38768 16.5789 9.59964 16.4226 9.75592C16.2663 9.9122 16.0544 10 15.8333 10ZM10.8333 11.8167V2.5C10.8333 2.27898 10.7455 2.06702 10.5893 1.91074C10.433 1.75446 10.221 1.66666 10 1.66666C9.779 1.66666 9.56703 1.75446 9.41075 1.91074C9.25447 2.06702 9.16668 2.27898 9.16668 2.5V11.8167C8.68405 11.9918 8.26706 12.3114 7.97238 12.7318C7.6777 13.1522 7.51961 13.6532 7.51961 14.1667C7.51961 14.6801 7.6777 15.1811 7.97238 15.6015C8.26706 16.022 8.68405 16.3415 9.16668 16.5167V17.5C9.16668 17.721 9.25447 17.933 9.41075 18.0893C9.56703 18.2455 9.779 18.3333 10 18.3333C10.221 18.3333 10.433 18.2455 10.5893 18.0893C10.7455 17.933 10.8333 17.721 10.8333 17.5V16.5167C11.316 16.3415 11.733 16.022 12.0276 15.6015C12.3223 15.1811 12.4804 14.6801 12.4804 14.1667C12.4804 13.6532 12.3223 13.1522 12.0276 12.7318C11.733 12.3114 11.316 11.9918 10.8333 11.8167ZM10 15C9.83519 15 9.67408 14.9511 9.53703 14.8596C9.39999 14.768 9.29318 14.6378 9.23011 14.4856C9.16704 14.3333 9.15053 14.1657 9.18269 14.0041C9.21484 13.8424 9.29421 13.694 9.41075 13.5774C9.5273 13.4609 9.67578 13.3815 9.83743 13.3493C9.99909 13.3172 10.1666 13.3337 10.3189 13.3968C10.4712 13.4598 10.6013 13.5666 10.6929 13.7037C10.7845 13.8407 10.8333 14.0018 10.8333 14.1667C10.8333 14.3877 10.7455 14.5996 10.5893 14.7559C10.433 14.9122 10.221 15 10 15ZM5.00001 5.15V2.5C5.00001 2.27898 4.91221 2.06702 4.75593 1.91074C4.59965 1.75446 4.38769 1.66666 4.16668 1.66666C3.94566 1.66666 3.7337 1.75446 3.57742 1.91074C3.42114 2.06702 3.33334 2.27898 3.33334 2.5V5.15C2.85072 5.32517 2.43373 5.64469 2.13904 6.06514C1.84436 6.48558 1.68628 6.98656 1.68628 7.5C1.68628 8.01343 1.84436 8.51441 2.13904 8.93486C2.43373 9.35531 2.85072 9.67483 3.33334 9.85V17.5C3.33334 17.721 3.42114 17.933 3.57742 18.0893C3.7337 18.2455 3.94566 18.3333 4.16668 18.3333C4.38769 18.3333 4.59965 18.2455 4.75593 18.0893C4.91221 17.933 5.00001 17.721 5.00001 17.5V9.85C5.48264 9.67483 5.89963 9.35531 6.19431 8.93486C6.48899 8.51441 6.64707 8.01343 6.64707 7.5C6.64707 6.98656 6.48899 6.48558 6.19431 6.06514C5.89963 5.64469 5.48264 5.32517 5.00001 5.15ZM4.16668 8.33333C4.00186 8.33333 3.84074 8.28446 3.7037 8.19289C3.56666 8.10132 3.45985 7.97117 3.39678 7.8189C3.3337 7.66663 3.3172 7.49907 3.34936 7.33742C3.38151 7.17577 3.46088 7.02729 3.57742 6.91074C3.69396 6.7942 3.84245 6.71483 4.0041 6.68268C4.16575 6.65052 4.33331 6.66702 4.48558 6.7301C4.63785 6.79317 4.768 6.89998 4.85957 7.03702C4.95114 7.17406 5.00001 7.33518 5.00001 7.5C5.00001 7.72101 4.91221 7.93297 4.75593 8.08925C4.59965 8.24553 4.38769 8.33333 4.16668 8.33333Z" fill="black"/>
</svg>
