<svg width="20" height="20" viewBox="0 0 20 20" fill="none" xmlns="http://www.w3.org/2000/svg">
<g clip-path="url(#clip0_642_778)">
<path d="M10.0001 12.3334C9.83526 12.3334 9.67415 12.3822 9.53711 12.4738C9.40007 12.5654 9.29326 12.6955 9.23018 12.8478C9.16711 13.0001 9.15061 13.1676 9.18276 13.3293C9.21492 13.4909 9.29428 13.6394 9.41083 13.7559C9.52737 13.8725 9.67586 13.9519 9.83751 13.984C9.99916 14.0162 10.1667 13.9997 10.319 13.9366C10.4713 13.8735 10.6014 13.7667 10.693 13.6297C10.7845 13.4926 10.8334 13.3315 10.8334 13.1667C10.8334 12.9457 10.7456 12.7337 10.5893 12.5774C10.4331 12.4212 10.2211 12.3334 10.0001 12.3334ZM10.0001 5.66669C9.77907 5.66669 9.56711 5.75448 9.41083 5.91076C9.25455 6.06705 9.16675 6.27901 9.16675 6.50002V9.83335C9.16675 10.0544 9.25455 10.2663 9.41083 10.4226C9.56711 10.5789 9.77907 10.6667 10.0001 10.6667C10.2211 10.6667 10.4331 10.5789 10.5893 10.4226C10.7456 10.2663 10.8334 10.0544 10.8334 9.83335V6.50002C10.8334 6.27901 10.7456 6.06705 10.5893 5.91076C10.4331 5.75448 10.2211 5.66669 10.0001 5.66669Z" fill="black"/>
<path d="M15.8926 4.10746C14.7271 2.94203 13.2423 2.14835 11.6258 1.82681C10.0092 1.50527 8.33369 1.67029 6.81097 2.30102C5.28826 2.93175 3.98677 3.99986 3.07109 5.37027C2.15541 6.74068 1.66667 8.35184 1.66667 10C1.66667 11.6482 2.15541 13.2594 3.07109 14.6298C3.98677 16.0002 5.28826 17.0683 6.81097 17.699C8.33369 18.3297 10.0092 18.4948 11.6258 18.1732C13.2423 17.8517 14.7271 17.058 15.8926 15.8926C16.6664 15.1188 17.2802 14.2001 17.699 13.189C18.1178 12.178 18.3333 11.0944 18.3333 10C18.3333 8.90567 18.1178 7.82204 17.699 6.81099C17.2802 5.79995 16.6664 4.88129 15.8926 4.10746ZM5.28596 14.7141C4.35361 13.7817 3.71867 12.5938 3.46143 11.3006C3.2042 10.0074 3.33622 8.66697 3.84081 7.4488C4.34539 6.23062 5.19987 5.18943 6.2962 4.45689C7.39253 3.72435 8.68146 3.33335 10 3.33335C11.3185 3.33335 12.6075 3.72435 13.7038 4.45689C14.8001 5.18943 15.6546 6.23062 16.1592 7.4488C16.6638 8.66697 16.7958 10.0074 16.5386 11.3006C16.2813 12.5938 15.6464 13.7817 14.714 14.7141C13.4638 15.9643 11.7681 16.6667 10 16.6667C8.23189 16.6667 6.5362 15.9643 5.28596 14.7141Z" fill="black"/>
</g>
<defs>
<clipPath id="clip0_642_778">
<rect width="20" height="20" fill="white"/>
</clipPath>
</defs>
</svg>
