<svg width="20" height="20" viewBox="0 0 20 20" fill="none" xmlns="http://www.w3.org/2000/svg">
<path d="M16.8001 3.84167C15.9153 2.95667 14.7423 2.41861 13.4944 2.32532C12.2465 2.23203 11.0066 2.58972 10.0001 3.33333C8.93978 2.5447 7.62006 2.18709 6.30667 2.33253C4.99327 2.47797 3.78377 3.11565 2.92171 4.11715C2.05966 5.11866 1.60909 6.4096 1.66073 7.73001C1.71238 9.05042 2.26242 10.3022 3.20007 11.2333L9.4084 17.4417C9.48587 17.5198 9.57804 17.5818 9.67959 17.6241C9.78114 17.6664 9.89006 17.6882 10.0001 17.6882C10.1101 17.6882 10.219 17.6664 10.3205 17.6241C10.4221 17.5818 10.5143 17.5198 10.5917 17.4417L16.8001 11.2333C17.2856 10.7481 17.6708 10.172 17.9336 9.53781C18.1964 8.90366 18.3316 8.22394 18.3316 7.5375C18.3316 6.85106 18.1964 6.17134 17.9336 5.53719C17.6708 4.90305 17.2856 4.3269 16.8001 3.84167ZM15.6251 10.0583L10.0001 15.675L4.37507 10.0583C3.87938 9.56058 3.54171 8.92754 3.40442 8.23862C3.26714 7.54969 3.33634 6.83557 3.60336 6.18583C3.87038 5.53609 4.32331 4.97966 4.90535 4.58635C5.4874 4.19304 6.17262 3.98037 6.87507 3.975C7.81349 3.9773 8.71265 4.35195 9.37507 5.01667C9.45254 5.09477 9.5447 5.15677 9.64625 5.19908C9.7478 5.24138 9.85672 5.26317 9.96673 5.26317C10.0767 5.26317 10.1857 5.24138 10.2872 5.19908C10.3888 5.15677 10.4809 5.09477 10.5584 5.01667C11.2403 4.42574 12.1213 4.11595 13.023 4.15002C13.9247 4.18409 14.7798 4.55946 15.4152 5.20016C16.0506 5.84086 16.4189 6.69903 16.4455 7.60099C16.4721 8.50295 16.155 9.38132 15.5584 10.0583H15.6251Z" fill="black"/>
</svg>
