<svg width="20" height="20" viewBox="0 0 20 20" fill="none" xmlns="http://www.w3.org/2000/svg">
<path d="M10.0001 7.5C9.83526 7.5 9.67415 7.54887 9.53711 7.64044C9.40006 7.73201 9.29325 7.86216 9.23018 8.01443C9.16711 8.1667 9.15061 8.33426 9.18276 8.49591C9.21491 8.65756 9.29428 8.80604 9.41083 8.92259C9.52737 9.03913 9.67585 9.1185 9.83751 9.15065C9.99916 9.18281 10.1667 9.1663 10.319 9.10323C10.4713 9.04016 10.6014 8.93335 10.693 8.79631C10.7845 8.65927 10.8334 8.49815 10.8334 8.33333C10.8334 8.11232 10.7456 7.90036 10.5893 7.74408C10.4331 7.58779 10.2211 7.5 10.0001 7.5ZM15.8334 1.66666H4.16675C3.50371 1.66666 2.86782 1.93006 2.39898 2.3989C1.93014 2.86774 1.66675 3.50362 1.66675 4.16666V12.5C1.66675 13.163 1.93014 13.7989 2.39898 14.2678C2.86782 14.7366 3.50371 15 4.16675 15H13.8251L16.9084 18.0917C16.9863 18.1689 17.0786 18.23 17.1802 18.2715C17.2817 18.3129 17.3904 18.334 17.5001 18.3333C17.6094 18.3361 17.7178 18.3133 17.8167 18.2667C17.9689 18.2041 18.0992 18.098 18.1911 17.9615C18.2831 17.8251 18.3326 17.6645 18.3334 17.5V4.16666C18.3334 3.50362 18.07 2.86774 17.6012 2.3989C17.1323 1.93006 16.4965 1.66666 15.8334 1.66666ZM16.6667 15.4917L14.7584 13.575C14.6805 13.4978 14.5882 13.4367 14.4867 13.3952C14.3851 13.3537 14.2764 13.3327 14.1667 13.3333H4.16675C3.94573 13.3333 3.73377 13.2455 3.57749 13.0893C3.42121 12.933 3.33341 12.721 3.33341 12.5V4.16666C3.33341 3.94565 3.42121 3.73369 3.57749 3.57741C3.73377 3.42113 3.94573 3.33333 4.16675 3.33333H15.8334C16.0544 3.33333 16.2664 3.42113 16.4227 3.57741C16.579 3.73369 16.6667 3.94565 16.6667 4.16666V15.4917ZM6.66675 7.5C6.50193 7.5 6.34081 7.54887 6.20377 7.64044C6.06673 7.73201 5.95992 7.86216 5.89685 8.01443C5.83378 8.1667 5.81727 8.33426 5.84943 8.49591C5.88158 8.65756 5.96095 8.80604 6.07749 8.92259C6.19404 9.03913 6.34252 9.1185 6.50417 9.15065C6.66582 9.18281 6.83338 9.1663 6.98565 9.10323C7.13792 9.04016 7.26807 8.93335 7.35964 8.79631C7.45121 8.65927 7.50008 8.49815 7.50008 8.33333C7.50008 8.11232 7.41228 7.90036 7.256 7.74408C7.09972 7.58779 6.88776 7.5 6.66675 7.5ZM13.3334 7.5C13.1686 7.5 13.0075 7.54887 12.8704 7.64044C12.7334 7.73201 12.6266 7.86216 12.5635 8.01443C12.5004 8.1667 12.4839 8.33426 12.5161 8.49591C12.5482 8.65756 12.6276 8.80604 12.7442 8.92259C12.8607 9.03913 13.0092 9.1185 13.1708 9.15065C13.3325 9.18281 13.5 9.1663 13.6523 9.10323C13.8046 9.04016 13.9347 8.93335 14.0263 8.79631C14.1179 8.65927 14.1667 8.49815 14.1667 8.33333C14.1667 8.11232 14.079 7.90036 13.9227 7.74408C13.7664 7.58779 13.5544 7.5 13.3334 7.5Z" fill="black"/>
</svg>
