<svg width="20" height="20" viewBox="0 0 20 20" fill="none" xmlns="http://www.w3.org/2000/svg">
<path d="M9.99989 13.3333C9.83507 13.3333 9.67396 13.3822 9.53692 13.4738C9.39987 13.5653 9.29307 13.6955 9.22999 13.8478C9.16692 14 9.15042 14.1676 9.18257 14.3292C9.21472 14.4909 9.29409 14.6394 9.41064 14.7559C9.52718 14.8725 9.67566 14.9518 9.83732 14.984C9.99897 15.0161 10.1665 14.9996 10.3188 14.9366C10.4711 14.8735 10.6012 14.7667 10.6928 14.6296C10.7844 14.4926 10.8332 14.3315 10.8332 14.1667C10.8332 13.9457 10.7454 13.7337 10.5891 13.5774C10.4329 13.4211 10.2209 13.3333 9.99989 13.3333ZM18.8916 14.5583L12.1832 2.89167C11.9664 2.50293 11.6497 2.17913 11.2659 1.95372C10.8821 1.72832 10.445 1.60947 9.99989 1.60947C9.55477 1.60947 9.11772 1.72832 8.7339 1.95372C8.35007 2.17913 8.03339 2.50293 7.81656 2.89167L1.14989 14.5583C0.925555 14.9367 0.80501 15.3675 0.800429 15.8073C0.795847 16.2472 0.90739 16.6804 1.1238 17.0634C1.3402 17.4463 1.65381 17.7654 2.03296 17.9884C2.41211 18.2113 2.84338 18.3303 3.28322 18.3333H16.7166C17.1599 18.3377 17.5965 18.2241 17.9815 18.0041C18.3665 17.7841 18.686 17.4657 18.9074 17.0815C19.1287 16.6973 19.2439 16.2612 19.2411 15.8178C19.2384 15.3744 19.1177 14.9397 18.8916 14.5583ZM17.4499 16.225C17.3768 16.355 17.2703 16.4629 17.1413 16.5377C17.0123 16.6124 16.8656 16.6512 16.7166 16.65H3.28322C3.13415 16.6512 2.98747 16.6124 2.85849 16.5377C2.72951 16.4629 2.62294 16.355 2.54989 16.225C2.47675 16.0983 2.43825 15.9546 2.43825 15.8083C2.43825 15.6621 2.47675 15.5183 2.54989 15.3917L9.21656 3.725C9.28649 3.5885 9.39274 3.47394 9.5236 3.39395C9.65446 3.31396 9.80485 3.27163 9.95822 3.27163C10.1116 3.27163 10.262 3.31396 10.3929 3.39395C10.5237 3.47394 10.63 3.5885 10.6999 3.725L17.4082 15.3917C17.4909 15.5165 17.5384 15.6614 17.5457 15.8109C17.5531 15.9605 17.52 16.1093 17.4499 16.2417V16.225ZM9.99989 6.66667C9.77888 6.66667 9.56692 6.75446 9.41064 6.91074C9.25436 7.06702 9.16656 7.27899 9.16656 7.5V10.8333C9.16656 11.0543 9.25436 11.2663 9.41064 11.4226C9.56692 11.5789 9.77888 11.6667 9.99989 11.6667C10.2209 11.6667 10.4329 11.5789 10.5891 11.4226C10.7454 11.2663 10.8332 11.0543 10.8332 10.8333V7.5C10.8332 7.27899 10.7454 7.06702 10.5891 6.91074C10.4329 6.75446 10.2209 6.66667 9.99989 6.66667Z" fill="black"/>
</svg>
