<svg width="20" height="20" viewBox="0 0 20 20" fill="none" xmlns="http://www.w3.org/2000/svg">
<path d="M14.1667 11.175L10.5917 7.64167C10.5142 7.56356 10.4221 7.50157 10.3205 7.45926C10.219 7.41695 10.11 7.39517 10 7.39517C9.89003 7.39517 9.78111 7.41695 9.67956 7.45926C9.57801 7.50157 9.48584 7.56356 9.40837 7.64167L5.87504 11.175C5.79693 11.2525 5.73494 11.3446 5.69263 11.4462C5.65032 11.5477 5.62854 11.6567 5.62854 11.7667C5.62854 11.8767 5.65032 11.9856 5.69263 12.0872C5.73494 12.1887 5.79693 12.2809 5.87504 12.3583C6.03117 12.5135 6.24238 12.6007 6.46254 12.6007C6.68269 12.6007 6.8939 12.5135 7.05004 12.3583L10 9.40834L12.95 12.3583C13.1053 12.5123 13.3148 12.5991 13.5334 12.6C13.643 12.6006 13.7518 12.5796 13.8533 12.5381C13.9548 12.4967 14.0472 12.4356 14.125 12.3583C14.2059 12.2837 14.2712 12.1937 14.3172 12.0936C14.3631 11.9936 14.3887 11.8854 14.3926 11.7754C14.3965 11.6653 14.3785 11.5556 14.3397 11.4526C14.301 11.3495 14.2421 11.2552 14.1667 11.175Z" fill="black"/>
</svg>
