<svg width="20" height="20" viewBox="0 0 20 20" fill="none" xmlns="http://www.w3.org/2000/svg">
<path d="M10.5918 6.90832C10.5125 6.83246 10.419 6.77299 10.3168 6.73332C10.1139 6.64997 9.8863 6.64997 9.68342 6.73332C9.58113 6.77299 9.48767 6.83246 9.40842 6.90832L6.90842 9.40832C6.7515 9.56524 6.66334 9.77807 6.66334 9.99999C6.66334 10.2219 6.7515 10.4347 6.90842 10.5917C7.06534 10.7486 7.27817 10.8367 7.50008 10.8367C7.722 10.8367 7.93483 10.7486 8.09175 10.5917L9.16675 9.50832V12.5C9.16675 12.721 9.25455 12.933 9.41083 13.0892C9.56711 13.2455 9.77907 13.3333 10.0001 13.3333C10.2211 13.3333 10.4331 13.2455 10.5893 13.0892C10.7456 12.933 10.8334 12.721 10.8334 12.5V9.50832L11.9084 10.5917C11.9859 10.6698 12.0781 10.7318 12.1796 10.7741C12.2812 10.8164 12.3901 10.8382 12.5001 10.8382C12.6101 10.8382 12.719 10.8164 12.8206 10.7741C12.9221 10.7318 13.0143 10.6698 13.0918 10.5917C13.1699 10.5142 13.2319 10.422 13.2742 10.3205C13.3165 10.2189 13.3383 10.11 13.3383 9.99999C13.3383 9.88998 13.3165 9.78106 13.2742 9.67951C13.2319 9.57796 13.1699 9.48579 13.0918 9.40832L10.5918 6.90832ZM10.0001 1.66666C8.35191 1.66666 6.74074 2.1554 5.37033 3.07108C3.99992 3.98675 2.93182 5.28824 2.30109 6.81096C1.67036 8.33368 1.50533 10.0092 1.82687 11.6257C2.14842 13.2423 2.94209 14.7271 4.10753 15.8925C5.27297 17.058 6.75782 17.8517 8.37433 18.1732C9.99084 18.4947 11.6664 18.3297 13.1891 17.699C14.7118 17.0683 16.0133 16.0002 16.929 14.6297C17.8447 13.2593 18.3334 11.6482 18.3334 9.99999C18.3334 8.90564 18.1179 7.82201 17.6991 6.81096C17.2803 5.79991 16.6665 4.88125 15.8926 4.10743C15.1188 3.33361 14.2002 2.71978 13.1891 2.30099C12.1781 1.8822 11.0944 1.66666 10.0001 1.66666ZM10.0001 16.6667C8.68154 16.6667 7.39261 16.2757 6.29628 15.5431C5.19996 14.8106 4.34547 13.7694 3.84089 12.5512C3.3363 11.333 3.20428 9.99259 3.46152 8.69939C3.71875 7.40618 4.35369 6.2183 5.28604 5.28594C6.21839 4.35359 7.40628 3.71866 8.69948 3.46142C9.99269 3.20419 11.3331 3.33621 12.5513 3.84079C13.7695 4.34538 14.8107 5.19986 15.5432 6.29619C16.2758 7.39252 16.6668 8.68145 16.6668 9.99999C16.6668 11.7681 15.9644 13.4638 14.7141 14.714C13.4639 15.9643 11.7682 16.6667 10.0001 16.6667Z" fill="black"/>
</svg>
