<svg width="20" height="20" viewBox="0 0 20 20" fill="none" xmlns="http://www.w3.org/2000/svg">
<path d="M9.16667 10.8333V9.16667H10.8333V10.8333H9.16667ZM7.5 12.5V10.8333H9.16667V12.5H7.5ZM10.8333 12.5V10.8333H12.5V12.5H10.8333ZM12.5 10.8333V9.16667H14.1667V10.8333H12.5ZM5.83333 10.8333V9.16667H7.5V10.8333H5.83333ZM4.16667 17.5C3.70833 17.5 3.31611 17.3369 2.99 17.0108C2.66389 16.6847 2.50056 16.2922 2.5 15.8333V4.16667C2.5 3.70833 2.66333 3.31611 2.99 2.99C3.31667 2.66389 3.70889 2.50056 4.16667 2.5H15.8333C16.2917 2.5 16.6842 2.66333 17.0108 2.99C17.3375 3.31667 17.5006 3.70889 17.5 4.16667V15.8333C17.5 16.2917 17.3369 16.6842 17.0108 17.0108C16.6847 17.3375 16.2922 17.5006 15.8333 17.5H4.16667ZM5.83333 15.8333H7.5V14.1667H5.83333V15.8333ZM9.16667 15.8333H10.8333V14.1667H9.16667V15.8333ZM4.16667 14.1667H5.83333V12.5H7.5V14.1667H9.16667V12.5H10.8333V14.1667H12.5V12.5H14.1667V14.1667H15.8333V12.5H14.1667V10.8333H15.8333V4.16667H4.16667V10.8333H5.83333V12.5H4.16667V14.1667ZM12.5 14.1667V15.8333H14.1667V14.1667H12.5Z" fill="#211C1E"/>
</svg>
