<svg width="20" height="20" viewBox="0 0 20 20" fill="none" xmlns="http://www.w3.org/2000/svg">
<path d="M15.8333 1.66667H4.16663C3.50358 1.66667 2.8677 1.93006 2.39886 2.3989C1.93002 2.86774 1.66663 3.50363 1.66663 4.16667V15.8333C1.66663 16.4964 1.93002 17.1323 2.39886 17.6011C2.8677 18.0699 3.50358 18.3333 4.16663 18.3333H15.8333C15.9704 18.3314 16.107 18.3175 16.2416 18.2917L16.4916 18.2333H16.55H16.5916L16.9 18.1167L17.0083 18.0583C17.0916 18.0083 17.1833 17.9667 17.2666 17.9083C17.3779 17.8265 17.4837 17.7374 17.5833 17.6417L17.6416 17.5667C17.7234 17.4838 17.7987 17.3946 17.8666 17.3L17.9416 17.1917C17.9998 17.0989 18.05 17.0013 18.0916 16.9C18.1145 16.86 18.134 16.8182 18.15 16.775C18.1916 16.675 18.2166 16.5667 18.25 16.4583V16.3333C18.2972 16.1705 18.3252 16.0027 18.3333 15.8333V4.16667C18.3333 3.50363 18.0699 2.86774 17.6011 2.3989C17.1322 1.93006 16.4963 1.66667 15.8333 1.66667ZM4.16663 16.6667C3.94561 16.6667 3.73365 16.5789 3.57737 16.4226C3.42109 16.2663 3.33329 16.0543 3.33329 15.8333V12.2417L6.07496 9.49167C6.15243 9.41356 6.2446 9.35157 6.34615 9.30926C6.44769 9.26695 6.55662 9.24517 6.66663 9.24517C6.77664 9.24517 6.88556 9.26695 6.98711 9.30926C7.08866 9.35157 7.18082 9.41356 7.25829 9.49167L14.425 16.6667H4.16663ZM16.6666 15.8333C16.6658 15.9361 16.6461 16.0378 16.6083 16.1333C16.5892 16.174 16.567 16.213 16.5416 16.25C16.5193 16.2853 16.4942 16.3187 16.4666 16.35L12.0083 11.8917L12.7416 11.1583C12.8191 11.0802 12.9113 11.0182 13.0128 10.9759C13.1144 10.9336 13.2233 10.9118 13.3333 10.9118C13.4433 10.9118 13.5522 10.9336 13.6538 10.9759C13.7553 11.0182 13.8475 11.0802 13.925 11.1583L16.6666 13.9083V15.8333ZM16.6666 11.55L15.1 10C14.6231 9.54749 13.9907 9.29523 13.3333 9.29523C12.6759 9.29523 12.0435 9.54749 11.5666 10L10.8333 10.7333L8.43329 8.33333C7.95639 7.88083 7.32404 7.62857 6.66663 7.62857C6.00921 7.62857 5.37686 7.88083 4.89996 8.33333L3.33329 9.88333V4.16667C3.33329 3.94565 3.42109 3.73369 3.57737 3.57741C3.73365 3.42113 3.94561 3.33333 4.16663 3.33333H15.8333C16.0543 3.33333 16.2663 3.42113 16.4225 3.57741C16.5788 3.73369 16.6666 3.94565 16.6666 4.16667V11.55Z" fill="black"/>
</svg>
