<svg width="24" height="24" viewBox="0 0 24 24" fill="none" xmlns="http://www.w3.org/2000/svg">
<path d="M20.0631 8.445C20.6659 9.04902 21.0042 9.86759 21.0038 10.7209C21.0035 11.5742 20.6644 12.3925 20.0611 12.996L12.9381 20.108C12.675 20.3703 12.351 20.5634 11.9951 20.67L7.70211 21.96C7.52751 22.0125 7.34188 22.0163 7.16528 21.971C6.98868 21.9256 6.82784 21.8328 6.70016 21.7027C6.57248 21.5725 6.48281 21.41 6.44085 21.2325C6.39889 21.0551 6.40624 20.8696 6.46211 20.696L7.82411 16.468C7.93411 16.128 8.12411 15.818 8.37611 15.565L15.5091 8.444C15.8082 8.14509 16.1633 7.90803 16.5541 7.74636C16.9449 7.58469 17.3636 7.50158 17.7865 7.50177C18.2094 7.50195 18.6281 7.58543 19.0187 7.74745C19.4094 7.90946 19.7642 8.14683 20.0631 8.446M16.5691 9.506L9.43611 16.626C9.35172 16.7103 9.28864 16.8135 9.25211 16.927L8.18211 20.25L11.5641 19.235C11.6827 19.1992 11.7906 19.1346 11.8781 19.047L19.0001 11.936C19.3226 11.6136 19.5038 11.1763 19.5039 10.7204C19.504 10.2644 19.323 9.827 19.0006 9.5045C18.6782 9.182 18.241 9.00076 17.785 9.00067C17.329 9.00057 16.8916 9.18163 16.5691 9.504M8.15011 2.37L8.20011 2.475L11.4531 10.724L10.2961 11.879L9.55611 10H5.44311L4.44811 12.52C4.3817 12.6888 4.25634 12.8278 4.09528 12.9113C3.93421 12.9948 3.74834 13.0171 3.57211 12.974L3.47411 12.943C3.30566 12.8762 3.16707 12.7507 3.08398 12.5897C3.00089 12.4287 2.97891 12.243 3.02211 12.067L3.05211 11.969L6.80611 2.474C6.85769 2.34309 6.94506 2.22934 7.05822 2.14573C7.17139 2.06212 7.30579 2.01203 7.44607 2.00119C7.58635 1.99034 7.72686 2.01917 7.85153 2.08439C7.9762 2.14961 8.08002 2.24858 8.15111 2.37M7.50311 4.792L6.03611 8.5H8.96411L7.50311 4.792Z" fill="black"/>
</svg>
