<svg width="20" height="20" viewBox="0 0 20 20" fill="none" xmlns="http://www.w3.org/2000/svg">
<path d="M12.2668 7.325L8.69175 10.9083L7.31675 9.53333C7.24205 9.4461 7.15011 9.37525 7.04673 9.32523C6.94334 9.27521 6.83073 9.2471 6.71596 9.24267C6.6012 9.23823 6.48675 9.25757 6.37982 9.29947C6.27288 9.34136 6.17576 9.40491 6.09454 9.48612C6.01333 9.56733 5.94978 9.66446 5.90789 9.7714C5.86599 9.87833 5.84665 9.99278 5.85109 10.1075C5.85552 10.2223 5.88363 10.3349 5.93365 10.4383C5.98367 10.5417 6.05452 10.6336 6.14175 10.7083L8.10009 12.675C8.17795 12.7522 8.2703 12.8133 8.37183 12.8548C8.47336 12.8963 8.58208 12.9173 8.69175 12.9167C8.91037 12.9157 9.11987 12.829 9.27509 12.675L13.4418 8.50833C13.5199 8.43086 13.5819 8.33869 13.6242 8.23714C13.6665 8.1356 13.6883 8.02667 13.6883 7.91666C13.6883 7.80665 13.6665 7.69773 13.6242 7.59618C13.5819 7.49463 13.5199 7.40247 13.4418 7.325C13.2856 7.16979 13.0744 7.08267 12.8543 7.08267C12.6341 7.08267 12.4229 7.16979 12.2668 7.325ZM10.0001 1.66666C8.35191 1.66666 6.74074 2.15541 5.37033 3.07108C3.99992 3.98676 2.93182 5.28825 2.30109 6.81097C1.67036 8.33369 1.50533 10.0092 1.82687 11.6258C2.14842 13.2423 2.94209 14.7271 4.10753 15.8926C5.27297 17.058 6.75782 17.8517 8.37433 18.1732C9.99084 18.4948 11.6664 18.3297 13.1891 17.699C14.7118 17.0683 16.0133 16.0002 16.929 14.6298C17.8447 13.2593 18.3334 11.6482 18.3334 10C18.3334 8.90565 18.1179 7.82202 17.6991 6.81097C17.2803 5.79992 16.6665 4.88126 15.8926 4.10744C15.1188 3.33362 14.2002 2.71979 13.1891 2.301C12.1781 1.88221 11.0944 1.66666 10.0001 1.66666ZM10.0001 16.6667C8.68154 16.6667 7.39261 16.2757 6.29628 15.5431C5.19996 14.8106 4.34547 13.7694 3.84089 12.5512C3.3363 11.333 3.20428 9.9926 3.46152 8.6994C3.71875 7.40619 4.35369 6.2183 5.28604 5.28595C6.21839 4.3536 7.40628 3.71866 8.69948 3.46143C9.99269 3.20419 11.3331 3.33622 12.5513 3.8408C13.7695 4.34539 14.8107 5.19987 15.5432 6.2962C16.2758 7.39252 16.6668 8.68146 16.6668 10C16.6668 11.7681 15.9644 13.4638 14.7141 14.714C13.4639 15.9643 11.7682 16.6667 10.0001 16.6667Z" fill="black"/>
</svg>
