<svg width="20" height="20" viewBox="0 0 20 20" fill="none" xmlns="http://www.w3.org/2000/svg">
<path d="M15.0667 10.35L9.91672 15.5083C9.24156 16.1083 8.36267 16.4277 7.45982 16.4011C6.55697 16.3746 5.69839 16.004 5.0597 15.3654C4.42101 14.7267 4.05048 13.8681 4.0239 12.9652C3.99732 12.0624 4.3167 11.1835 4.91672 10.5083L11.5834 3.84166C11.9814 3.46358 12.5094 3.25277 13.0584 3.25277C13.6074 3.25277 14.1354 3.46358 14.5334 3.84166C14.9212 4.23465 15.1386 4.76455 15.1386 5.31666C15.1386 5.86877 14.9212 6.39867 14.5334 6.79166L8.78338 12.5333C8.72648 12.5946 8.65806 12.6441 8.58203 12.6789C8.50601 12.7138 8.42386 12.7333 8.34029 12.7364C8.25672 12.7395 8.17335 12.7261 8.09496 12.697C8.01656 12.6678 7.94467 12.6236 7.88339 12.5667C7.8221 12.5098 7.77263 12.4413 7.73779 12.3653C7.70294 12.2893 7.68342 12.2071 7.68032 12.1236C7.67723 12.04 7.69062 11.9566 7.71974 11.8782C7.74887 11.7998 7.79315 11.7279 7.85005 11.6667L12.1251 7.4C12.282 7.24308 12.3701 7.03025 12.3701 6.80833C12.3701 6.58641 12.282 6.37358 12.1251 6.21666C11.9681 6.05974 11.7553 5.97159 11.5334 5.97159C11.3115 5.97159 11.0986 6.05974 10.9417 6.21666L6.66672 10.5C6.45281 10.7122 6.28302 10.9647 6.16716 11.2429C6.0513 11.5211 5.99165 11.8195 5.99165 12.1208C5.99165 12.4222 6.0513 12.7205 6.16716 12.9987C6.28302 13.2769 6.45281 13.5294 6.66672 13.7417C7.1037 14.1579 7.68406 14.3901 8.28755 14.3901C8.89104 14.3901 9.47141 14.1579 9.90839 13.7417L15.6501 7.99166C16.3125 7.28079 16.6731 6.34056 16.6559 5.36905C16.6388 4.39754 16.2452 3.47062 15.5582 2.78355C14.8711 2.09649 13.9442 1.70293 12.9727 1.68579C12.0012 1.66865 11.0609 2.02926 10.3501 2.69166L3.68339 9.35833C2.78438 10.354 2.30424 11.6582 2.343 12.9991C2.38175 14.3401 2.93641 15.6144 3.89142 16.5565C4.84642 17.4986 6.12812 18.0359 7.46946 18.0564C8.8108 18.0769 10.1083 17.5791 11.0917 16.6667L16.2501 11.5167C16.3278 11.439 16.3894 11.3467 16.4314 11.2452C16.4735 11.1437 16.4951 11.0349 16.4951 10.925C16.4951 10.8151 16.4735 10.7063 16.4314 10.6048C16.3894 10.5033 16.3278 10.411 16.2501 10.3333C16.1724 10.2556 16.0801 10.194 15.9786 10.1519C15.8771 10.1099 15.7683 10.0883 15.6584 10.0883C15.5485 10.0883 15.4397 10.1099 15.3382 10.1519C15.2367 10.194 15.1444 10.2556 15.0667 10.3333V10.35Z" fill="black"/>
</svg>
