<svg width="24" height="24" viewBox="0 0 24 24" fill="none" xmlns="http://www.w3.org/2000/svg">
<path d="M12 3H5C4.46957 3 3.96086 3.21071 3.58579 3.58579C3.21071 3.96086 3 4.46957 3 5V19C3 19.5304 3.21071 20.0391 3.58579 20.4142C3.96086 20.7893 4.46957 21 5 21H19C19.5304 21 20.0391 20.7893 20.4142 20.4142C20.7893 20.0391 21 19.5304 21 19V12" stroke="black" stroke-width="2" stroke-linecap="round" stroke-linejoin="round"/>
<path d="M18.375 2.625C18.7728 2.22717 19.3124 2.00368 19.875 2.00368C20.4376 2.00368 20.9772 2.22717 21.375 2.625C21.7728 3.02282 21.9963 3.56239 21.9963 4.125C21.9963 4.68761 21.7728 5.22717 21.375 5.625L12 15L8 16L9 12L18.375 2.625Z" stroke="black" stroke-width="2" stroke-linecap="round" stroke-linejoin="round"/>
</svg>
