<svg width="20" height="20" viewBox="0 0 20 20" fill="none" xmlns="http://www.w3.org/2000/svg">
<path d="M9.21011 9.97062L13.9141 5.26667C14.1616 5.0177 14.3005 4.68091 14.3005 4.32986C14.3005 3.97881 14.1616 3.64202 13.9141 3.39306C13.7905 3.26851 13.6436 3.16966 13.4816 3.10219C13.3197 3.03473 13.146 3 12.9706 3C12.7952 3 12.6215 3.03473 12.4596 3.10219C12.2977 3.16966 12.1507 3.26851 12.0272 3.39306L6.39306 9.02717C6.26851 9.1507 6.16966 9.29767 6.10219 9.45959C6.03473 9.62152 6 9.7952 6 9.97062C6 10.146 6.03473 10.3197 6.10219 10.4816C6.16966 10.6436 6.26851 10.7905 6.39306 10.9141L12.0272 16.6146C12.1513 16.7378 12.2986 16.8352 12.4605 16.9013C12.6224 16.9675 12.7957 17.001 12.9706 17C13.1455 17.001 13.3189 16.9675 13.4808 16.9013C13.6427 16.8352 13.7899 16.7378 13.9141 16.6146C14.1616 16.3657 14.3005 16.0289 14.3005 15.6778C14.3005 15.3268 14.1616 14.99 13.9141 14.741L9.21011 9.97062Z" fill="black"/>
</svg>
