<svg width="20" height="20" viewBox="0 0 20 20" fill="none" xmlns="http://www.w3.org/2000/svg">
<path d="M15.5399 9.72218H7.11348L10.7771 6.06963C10.9862 5.86058 11.1036 5.57704 11.1036 5.2814C11.1036 4.98575 10.9862 4.70221 10.7771 4.49316C10.5681 4.2841 10.2845 4.16666 9.98889 4.16666C9.69325 4.16666 9.40971 4.2841 9.20065 4.49316L3.64967 10.0441C3.5486 10.1497 3.46937 10.2742 3.41653 10.4105C3.30549 10.6808 3.30549 10.984 3.41653 11.2543C3.46937 11.3905 3.5486 11.515 3.64967 11.6206L9.20065 17.1716C9.30386 17.2757 9.42665 17.3582 9.56194 17.4146C9.69722 17.471 9.84233 17.5 9.98889 17.5C10.1355 17.5 10.2806 17.471 10.4158 17.4146C10.5511 17.3582 10.6739 17.2757 10.7771 17.1716C10.8812 17.0684 10.9638 16.9456 11.0201 16.8103C11.0765 16.675 11.1055 16.5299 11.1055 16.3834C11.1055 16.2368 11.0765 16.0917 11.0201 15.9564C10.9638 15.8211 10.8812 15.6983 10.7771 15.5951L7.11348 11.9426H15.5399C15.8343 11.9426 16.1167 11.8256 16.3249 11.6174C16.5331 11.4092 16.6501 11.1268 16.6501 10.8324C16.6501 10.5379 16.5331 10.2556 16.3249 10.0473C16.1167 9.83915 15.8343 9.72218 15.5399 9.72218Z" fill="black"/>
</svg>
