<svg width="20" height="20" viewBox="0 0 20 20" fill="none" xmlns="http://www.w3.org/2000/svg">
<path d="M6.90841 9.40832C6.83255 9.48758 6.77308 9.58103 6.73342 9.68332C6.65007 9.88621 6.65007 10.1138 6.73342 10.3167C6.77308 10.419 6.83255 10.5124 6.90841 10.5917L9.40841 13.0917C9.56533 13.2486 9.77816 13.3367 10.0001 13.3367C10.222 13.3367 10.4348 13.2486 10.5917 13.0917C10.7487 12.9347 10.8368 12.7219 10.8368 12.5C10.8368 12.2781 10.7487 12.0652 10.5917 11.9083L9.50841 10.8333H12.5001C12.7211 10.8333 12.9331 10.7455 13.0893 10.5892C13.2456 10.433 13.3334 10.221 13.3334 9.99999C13.3334 9.77898 13.2456 9.56702 13.0893 9.41073C12.9331 9.25445 12.7211 9.16666 12.5001 9.16666H9.50841L10.5917 8.09166C10.6699 8.01419 10.7319 7.92202 10.7742 7.82047C10.8165 7.71892 10.8382 7.61 10.8382 7.49999C10.8382 7.38998 10.8165 7.28106 10.7742 7.17951C10.7319 7.07796 10.6699 6.98579 10.5917 6.90832C10.5143 6.83022 10.4221 6.76822 10.3206 6.72591C10.219 6.68361 10.1101 6.66182 10.0001 6.66182C9.89007 6.66182 9.78115 6.68361 9.6796 6.72591C9.57805 6.76822 9.48588 6.83022 9.40841 6.90832L6.90841 9.40832ZM1.66675 9.99999C1.66675 11.6482 2.15549 13.2593 3.07117 14.6297C3.98685 16.0002 5.28834 17.0683 6.81105 17.699C8.33377 18.3297 10.0093 18.4947 11.6258 18.1732C13.2423 17.8517 14.7272 17.058 15.8926 15.8925C17.0581 14.7271 17.8517 13.2423 18.1733 11.6257C18.4948 10.0092 18.3298 8.33368 17.6991 6.81096C17.0683 5.28824 16.0002 3.98675 14.6298 3.07108C13.2594 2.1554 11.6483 1.66666 10.0001 1.66666C8.90573 1.66666 7.8221 1.8822 6.81105 2.30099C5.80001 2.71978 4.88135 3.33361 4.10752 4.10743C2.54472 5.67024 1.66675 7.78985 1.66675 9.99999ZM16.6667 9.99999C16.6667 11.3185 16.2758 12.6075 15.5432 13.7038C14.8107 14.8001 13.7695 15.6546 12.5513 16.1592C11.3331 16.6638 9.99269 16.7958 8.69948 16.5386C7.40627 16.2813 6.21839 15.6464 5.28604 14.714C4.35369 13.7817 3.71875 12.5938 3.46151 11.3006C3.20428 10.0074 3.3363 8.66694 3.84088 7.44877C4.34547 6.23059 5.19995 5.1894 6.29628 4.45686C7.39261 3.72432 8.68154 3.33332 10.0001 3.33332C11.7682 3.33332 13.4639 4.0357 14.7141 5.28594C15.9644 6.53619 16.6667 8.23188 16.6667 9.99999Z" fill="black"/>
</svg>
