<svg width="20" height="20" viewBox="0 0 20 20" fill="none" xmlns="http://www.w3.org/2000/svg">
<path d="M10.0916 12.825L6.85828 16.0583C6.46681 16.4361 5.94399 16.6473 5.39995 16.6473C4.8559 16.6473 4.33308 16.4361 3.94161 16.0583C3.74962 15.8671 3.59727 15.6398 3.49332 15.3896C3.38937 15.1393 3.33586 14.871 3.33586 14.6C3.33586 14.329 3.38937 14.0607 3.49332 13.8104C3.59727 13.5602 3.74962 13.3329 3.94161 13.1417L7.17494 9.90833C7.33186 9.75141 7.42002 9.53858 7.42002 9.31666C7.42002 9.09475 7.33186 8.88192 7.17494 8.725C7.01802 8.56808 6.8052 8.47992 6.58328 8.47992C6.36136 8.47992 6.14853 8.56808 5.99161 8.725L2.75828 11.9667C2.10691 12.6757 1.75463 13.6089 1.77501 14.5715C1.79539 15.534 2.18685 16.4515 2.86764 17.1323C3.54843 17.8131 4.46591 18.2046 5.42848 18.2249C6.39105 18.2453 7.32428 17.893 8.03328 17.2417L11.2749 14.0083C11.4319 13.8514 11.52 13.6386 11.52 13.4167C11.52 13.1947 11.4319 12.9819 11.2749 12.825C11.118 12.6681 10.9052 12.5799 10.6833 12.5799C10.4614 12.5799 10.2485 12.6681 10.0916 12.825ZM17.2416 2.75833C16.5406 2.06167 15.5924 1.67065 14.6041 1.67065C13.6158 1.67065 12.6676 2.06167 11.9666 2.75833L8.72495 5.99166C8.64725 6.06936 8.58561 6.1616 8.54356 6.26312C8.50151 6.36464 8.47987 6.47345 8.47987 6.58333C8.47987 6.69321 8.50151 6.80202 8.54356 6.90354C8.58561 7.00506 8.64725 7.0973 8.72495 7.175C8.80264 7.2527 8.89489 7.31433 8.9964 7.35638C9.09792 7.39843 9.20673 7.42007 9.31661 7.42007C9.4265 7.42007 9.5353 7.39843 9.63682 7.35638C9.73834 7.31433 9.83058 7.2527 9.90828 7.175L13.1416 3.94166C13.5331 3.56385 14.0559 3.35271 14.5999 3.35271C15.144 3.35271 15.6668 3.56385 16.0583 3.94166C16.2503 4.1329 16.4026 4.36017 16.5066 4.61043C16.6105 4.86069 16.664 5.12901 16.664 5.4C16.664 5.67099 16.6105 5.93931 16.5066 6.18957C16.4026 6.43982 16.2503 6.66709 16.0583 6.85833L12.8249 10.0917C12.7468 10.1691 12.6848 10.2613 12.6425 10.3629C12.6002 10.4644 12.5784 10.5733 12.5784 10.6833C12.5784 10.7933 12.6002 10.9023 12.6425 11.0038C12.6848 11.1054 12.7468 11.1975 12.8249 11.275C12.9024 11.3531 12.9946 11.4151 13.0961 11.4574C13.1977 11.4997 13.3066 11.5215 13.4166 11.5215C13.5266 11.5215 13.6355 11.4997 13.7371 11.4574C13.8386 11.4151 13.9308 11.3531 14.0083 11.275L17.2416 8.03333C17.9383 7.33231 18.3293 6.38414 18.3293 5.39583C18.3293 4.40752 17.9383 3.45935 17.2416 2.75833ZM7.35828 12.6417C7.43614 12.7189 7.52849 12.78 7.63002 12.8215C7.73155 12.8629 7.84027 12.884 7.94994 12.8833C8.05962 12.884 8.16834 12.8629 8.26987 12.8215C8.3714 12.78 8.46375 12.7189 8.54161 12.6417L12.6416 8.54166C12.7985 8.38474 12.8867 8.17192 12.8867 7.95C12.8867 7.72808 12.7985 7.51525 12.6416 7.35833C12.4847 7.20141 12.2719 7.11325 12.0499 7.11325C11.828 7.11325 11.6152 7.20141 11.4583 7.35833L7.35828 11.4583C7.28017 11.5358 7.21818 11.628 7.17587 11.7295C7.13356 11.8311 7.11178 11.94 7.11178 12.05C7.11178 12.16 7.13356 12.2689 7.17587 12.3705C7.21818 12.472 7.28017 12.5642 7.35828 12.6417Z" fill="black"/>
</svg>
