<svg width="20" height="20" viewBox="0 0 20 20" fill="none" xmlns="http://www.w3.org/2000/svg">
<path d="M16.5917 12.925H12.8167C12.5957 12.925 12.3838 13.0128 12.2275 13.1691C12.0712 13.3253 11.9834 13.5373 11.9834 13.7583C11.9834 13.9793 12.0712 14.1913 12.2275 14.3476C12.3838 14.5039 12.5957 14.5917 12.8167 14.5917H14.8167C13.8975 15.5523 12.7121 16.2161 11.4127 16.4978C10.1133 16.7795 8.75942 16.6663 7.5249 16.1727C6.29037 15.6791 5.23164 14.8276 4.48474 13.7276C3.73784 12.6277 3.33689 11.3295 3.33341 9.99999C3.33341 9.77898 3.24562 9.56701 3.08934 9.41073C2.93306 9.25445 2.7211 9.16666 2.50008 9.16666C2.27907 9.16666 2.06711 9.25445 1.91083 9.41073C1.75455 9.56701 1.66675 9.77898 1.66675 9.99999C1.67115 11.6273 2.15193 13.2178 3.04975 14.575C3.94757 15.9323 5.22314 16.997 6.71903 17.6377C8.21493 18.2784 9.86569 18.4671 11.4676 18.1805C13.0695 17.8939 14.5524 17.1446 15.7334 16.025V17.5C15.7334 17.721 15.8212 17.933 15.9775 18.0892C16.1338 18.2455 16.3457 18.3333 16.5667 18.3333C16.7878 18.3333 16.9997 18.2455 17.156 18.0892C17.3123 17.933 17.4001 17.721 17.4001 17.5V13.75C17.398 13.5347 17.3127 13.3285 17.162 13.1747C17.0113 13.0209 16.807 12.9314 16.5917 12.925ZM10.0001 1.66666C7.86374 1.67275 5.81132 2.49908 4.26675 3.97499V2.49999C4.26675 2.27898 4.17895 2.06701 4.02267 1.91073C3.86639 1.75445 3.65443 1.66666 3.43341 1.66666C3.2124 1.66666 3.00044 1.75445 2.84416 1.91073C2.68788 2.06701 2.60008 2.27898 2.60008 2.49999V6.24999C2.60008 6.471 2.68788 6.68296 2.84416 6.83925C3.00044 6.99553 3.2124 7.08332 3.43341 7.08332H7.18341C7.40443 7.08332 7.61639 6.99553 7.77267 6.83925C7.92895 6.68296 8.01675 6.471 8.01675 6.24999C8.01675 6.02898 7.92895 5.81701 7.77267 5.66073C7.61639 5.50445 7.40443 5.41666 7.18341 5.41666H5.18341C6.10214 4.45655 7.28682 3.79291 8.58541 3.51091C9.884 3.22892 11.2372 3.34144 12.4714 3.83404C13.7056 4.32664 14.7644 5.17683 15.5119 6.27549C16.2595 7.37415 16.6616 8.67114 16.6667 9.99999C16.6667 10.221 16.7545 10.433 16.9108 10.5892C17.0671 10.7455 17.2791 10.8333 17.5001 10.8333C17.7211 10.8333 17.9331 10.7455 18.0893 10.5892C18.2456 10.433 18.3334 10.221 18.3334 9.99999C18.3334 8.90564 18.1179 7.82201 17.6991 6.81096C17.2803 5.79991 16.6665 4.88125 15.8926 4.10743C15.1188 3.33361 14.2002 2.71978 13.1891 2.30099C12.1781 1.8822 11.0944 1.66666 10.0001 1.66666Z" fill="black"/>
</svg>
