<svg width="33" height="26" viewBox="0 0 33 26" fill="none" xmlns="http://www.w3.org/2000/svg">
<path d="M32.6258 3C31.4388 3.525 30.1592 3.87 28.8333 4.035C30.19 3.24 31.2383 1.98 31.7317 0.465C30.4521 1.215 29.0338 1.74 27.5383 2.04C26.3204 0.75 24.6092 0 22.6667 0C19.0438 0 16.0838 2.88 16.0838 6.435C16.0838 6.945 16.1454 7.44 16.2533 7.905C10.765 7.635 5.87793 5.07 2.62501 1.185C2.05459 2.13 1.73084 3.24 1.73084 4.41C1.73084 6.645 2.88709 8.625 4.67543 9.75C3.58084 9.75 2.56334 9.45 1.66918 9C1.66918 9 1.66918 9 1.66918 9.045C1.66918 12.165 3.95084 14.775 6.97251 15.36C6.41751 15.51 5.83168 15.585 5.23043 15.585C4.81418 15.585 4.39793 15.54 3.99709 15.465C4.82959 18 7.25001 19.89 10.1638 19.935C7.91293 21.675 5.06084 22.695 1.94668 22.695C1.42251 22.695 0.898343 22.665 0.374176 22.605C3.30334 24.435 6.78751 25.5 10.5183 25.5C22.6667 25.5 29.3421 15.69 29.3421 7.185C29.3421 6.9 29.3421 6.63 29.3267 6.345C30.6217 5.445 31.7317 4.305 32.6258 3Z" fill="#FEF5F9"/>
</svg>
